<?xml version="1.0" standalone="no"?>
<!DOCTYPE svg PUBLIC "-//W3C//DTD SVG 20010904//EN"
 "http://www.w3.org/TR/2001/REC-SVG-20010904/DTD/svg10.dtd">
<svg version="1.0" xmlns="http://www.w3.org/2000/svg"
 width="512.000000pt" height="512.000000pt" viewBox="0 0 512.000000 512.000000"
 preserveAspectRatio="xMidYMid meet">

<g transform="translate(0.000000,512.000000) scale(0.100000,-0.100000)"
fill="#000000" stroke="none">
<path d="M2301 5109 c-564 -50 -1051 -264 -1418 -622 -104 -101 -113 -113
-113 -147 0 -46 24 -70 70 -70 29 0 48 14 139 103 58 56 133 123 166 148 302
231 666 374 1095 431 52 7 196 12 320 12 315 0 532 -32 798 -119 733 -240
1217 -818 1367 -1633 14 -73 30 -142 35 -153 23 -42 105 -35 127 12 11 22 9
45 -7 136 -57 316 -177 646 -320 878 -154 251 -374 480 -619 644 -437 294
-1039 433 -1640 380z"/>
<path d="M2325 4810 c-632 -67 -1118 -329 -1442 -777 -74 -103 -208 -368 -252
-498 -100 -300 -141 -582 -142 -976 0 -512 78 -879 262 -1239 143 -277 332
-493 588 -669 41 -28 84 -51 96 -51 37 0 75 37 75 74 0 42 -10 53 -100 114
-418 286 -665 740 -752 1382 -20 148 -17 663 5 820 52 369 160 677 325 925 91
137 292 338 428 428 323 214 700 320 1139 320 208 1 319 -10 495 -49 683 -150
1136 -576 1329 -1249 106 -371 130 -899 61 -1323 -71 -433 -228 -771 -483
-1038 -239 -250 -542 -416 -913 -498 -171 -38 -285 -50 -484 -50 -265 0 -476
33 -703 110 -120 40 -126 40 -161 13 -34 -27 -36 -77 -3 -106 46 -42 312 -118
522 -149 166 -25 524 -25 690 0 348 51 661 173 928 363 111 78 317 287 399
403 130 183 248 442 308 675 66 256 91 476 91 795 0 385 -42 674 -142 975 -43
129 -178 395 -254 500 -299 414 -750 675 -1315 760 -122 19 -478 28 -595 15z"/>
<path d="M604 4130 c-27 -11 -79 -96 -153 -252 -137 -288 -220 -612 -251 -985
-18 -209 -8 -667 19 -845 172 -1153 873 -1869 1982 -2025 172 -24 557 -24 724
1 396 57 730 180 1021 377 524 353 844 905 955 1647 16 104 22 208 26 432 5
278 4 296 -13 317 -11 13 -33 26 -51 29 -26 5 -37 1 -57 -19 l-26 -26 0 -226
c0 -251 -17 -449 -56 -648 -192 -985 -847 -1603 -1844 -1738 -125 -17 -497
-18 -630 -1 -432 55 -829 216 -1130 459 -97 78 -249 237 -323 335 -219 293
-361 657 -428 1093 -26 176 -38 624 -20 821 38 429 142 789 315 1089 25 44 46
88 46 97 0 22 -39 65 -65 71 -11 3 -30 2 -41 -3z"/>
<path d="M2440 3874 c-336 -72 -564 -408 -636 -939 -21 -159 -24 -559 -5 -710
67 -535 278 -874 606 -971 81 -24 229 -24 310 0 282 84 477 343 568 757 30
134 43 244 53 431 l7 137 -31 31 c-25 25 -36 29 -59 24 -61 -14 -66 -27 -74
-211 -19 -416 -109 -697 -282 -879 -53 -56 -88 -83 -145 -112 -74 -36 -78 -37
-191 -37 -110 0 -119 2 -185 33 -109 51 -217 166 -284 302 -58 119 -94 233
-124 400 -26 147 -37 554 -18 723 49 450 195 733 435 844 81 37 220 44 311 15
198 -62 345 -262 424 -577 16 -61 33 -146 39 -190 9 -66 16 -84 37 -102 33
-30 69 -29 99 2 29 28 30 42 9 166 -84 490 -307 799 -626 863 -92 19 -151 19
-238 0z"/>
</g>
</svg>
